<?xml version="1.0" standalone="no"?>
<!DOCTYPE svg PUBLIC "-//W3C//DTD SVG 20010904//EN"
 "http://www.w3.org/TR/2001/REC-SVG-20010904/DTD/svg10.dtd">
<svg version="1.0" xmlns="http://www.w3.org/2000/svg"
 width="1000.000000pt" height="1000.000000pt" viewBox="0 0 1000.000000 1000.000000"
 preserveAspectRatio="xMidYMid meet">
<metadata>
Created by potrace 1.14, written by Peter Selinger 2001-2017
</metadata>
<g transform="translate(0.000000,1000.000000) scale(0.100000,-0.100000)"
fill="#000000" stroke="none">
<path d="M2420 6215 l0 -2845 685 0 685 0 0 -1185 0 -1185 685 0 685 0 0 965
0 965 518 1 c530 1 550 1 687 13 95 8 138 13 225 27 36 6 79 13 95 15 45 7
234 54 284 71 24 8 51 16 60 18 31 7 219 85 287 121 332 172 581 407 747 705
32 57 94 195 101 224 1 6 12 42 23 80 18 59 28 100 33 125 1 3 5 23 10 45 44
184 46 517 5 735 -21 113 -24 129 -49 215 -142 487 -482 881 -961 1115 -139
67 -394 157 -505 177 -14 2 -56 10 -95 18 -87 17 -157 27 -290 40 -137 14
-453 18 -1437 18 l-1108 0 0 653 0 653 1663 0 c914 0 1667 0 1672 1 7 0 10
178 10 528 l0 527 -2358 2 -2357 3 0 -2845z m3815 -599 c67 -12 167 -46 230
-79 51 -27 76 -44 140 -96 25 -21 94 -101 123 -143 126 -184 174 -465 129
-748 -24 -151 -113 -300 -237 -401 -39 -31 -104 -72 -120 -74 -3 0 -15 -6 -27
-13 -12 -6 -48 -19 -80 -28 -145 -40 -184 -43 -715 -43 l-518 -1 0 813 c0 448
2 816 4 818 8 7 1029 3 1071 -5z"/>
</g>
</svg>
